PathFileType	4	(X/Y/Z)	s09c0201.trc
DataRate	CameraRate	NumFrames	NumMarkers	Units	OrigDataRate	OrigDataStartFrame	OrigNumFrames
200	200	5	50	mm	200	1500	2000
Frame#	Time	racr			lacr			c7			jug			rlel			rdr			llel			ldr			s2			lic			ric			lasi			rasi			rpsi			lpsi			rgt			lgt			rth1			rth2			rth3			rth4			rlfc			rmfc			rsh1			rsh2			rsh3			rsh4			rlmal			rmmal			rcal			rtoe			rmt5			lth1			lth2			lth4			lth3			llfc			lmfc			llmal			lmmal			lcal			lmt5			lsh1			lsh2			lsh3			lsh4			ltoe			SBIKE			LBIKE			RBIKE			
		X1	Y1	Z1	X2	Y2	Z2	X3	Y3	Z3	X4	Y4	Z4	X5	Y5	Z5	X6	Y6	Z6	X7	Y7	Z7	X8	Y8	Z8	X9	Y9	Z9	X10	Y10	Z10	X11	Y11	Z11	X12	Y12	Z12	X13	Y13	Z13	X14	Y14	Z14	X15	Y15	Z15	X16	Y16	Z16	X17	Y17	Z17	X18	Y18	Z18	X19	Y19	Z19	X20	Y20	Z20	X21	Y21	Z21	X22	Y22	Z22	X23	Y23	Z23	X24	Y24	Z24	X25	Y25	Z25	X26	Y26	Z26	X27	Y27	Z27	X28	Y28	Z28	X29	Y29	Z29	X30	Y30	Z30	X31	Y31	Z31	X32	Y32	Z32	X33	Y33	Z33	X34	Y34	Z34	X35	Y35	Z35	X36	Y36	Z36	X37	Y37	Z37	X38	Y38	Z38	X39	Y39	Z39	X40	Y40	Z40	X41	Y41	Z41	X42	Y42	Z42	X43	Y43	Z43	X44	Y44	Z44	X45	Y45	Z45	X46	Y46	Z46	X47	Y47	Z47	X48	Y48	Z48	X49	Y49	Z49	X50	Y50	Z50	
1500	7.5000	490.079600	1214.356952	-24.520649	562.927631	1177.411352	-359.350504	515.445868	1275.151004	-195.245801	479.724568	1146.580379	-197.196466	468.600783	1000.084586	104.711191	666.218129	894.253372	11.777806	470.256553	1017.944480	-567.043758	663.598211	897.559589	-497.002930	21.543968	1130.349213	-271.000868	167.624042	1114.128446	-404.605977	141.225418	1143.234621	-106.661311	203.326361	1062.326685	-371.882439	189.418652	1090.347830	-118.786425	43.026083	1164.958794	-212.601565	54.524613	1163.846160	-321.861956	129.414731	1004.217035	-62.779549	141.945522	980.235199	-436.196523	245.759998	920.799615	-61.064988	328.457551	889.254982	-63.979042	379.063352	817.940440	-68.700631	347.990007	913.316019	-83.944871	447.448582	737.084926	-96.855755	442.278985	714.176681	-193.278641	406.195821	639.552950	-63.865636	410.613983	550.604932	-76.924769	370.230817	473.089399	-76.546711	436.199018	548.403431	-106.638516	351.523895	370.625497	-76.403451	345.304823	383.348091	-153.886878	274.326139	320.225953	-112.271375	534.883782	361.365686	-132.720742	462.260438	328.895427	-62.161405	243.521942	884.460810	-421.885873	315.523393	843.247933	-403.917935	339.030071	867.811449	-385.996288	360.671026	765.564722	-395.074912	394.482706	675.220546	-371.939914	387.161479	659.613246	-273.706218	111.729025	446.479715	-403.801444	129.073094	439.815682	-331.695926	38.423628	459.247011	-367.606396	133.443741	314.826058	-428.636450	322.058972	610.169132	-401.507815	270.802287	540.811202	-394.978059	189.598076	504.256380	-402.482471	284.087790	523.822911	-360.920436	210.658515	264.420961	-358.495381	-64.727694	852.821010	-241.212858	21.216272	83.772757	-442.202708	21.190537	83.947914	-43.976291	
1501	7.5050	491.932915	1214.479693	-26.293996	562.146233	1177.185555	-360.497616	515.599686	1274.640001	-195.253624	479.138915	1146.278552	-196.590025	469.473757	1000.814334	104.803493	666.628790	894.109348	11.874027	468.823278	1015.917283	-566.770315	663.605056	897.280996	-497.568653	21.403991	1128.850894	-269.502936	166.891929	1114.218329	-403.018003	140.805378	1141.312913	-104.314832	202.981864	1062.591845	-370.418036	189.394159	1088.794629	-117.148534	42.751900	1163.416833	-210.377856	54.027525	1162.988279	-320.162298	128.466963	999.804943	-61.695935	143.129028	980.794033	-435.617086	243.421012	914.688444	-60.438064	326.087985	881.584289	-63.067427	375.245030	809.615390	-67.847095	345.953450	905.676806	-82.226033	441.619722	728.053806	-96.212202	436.537392	705.508355	-192.344380	401.648399	630.134360	-63.115116	407.401383	541.369431	-76.356539	368.271464	463.135501	-76.129954	433.049035	539.540984	-106.067301	350.830341	360.101918	-76.034924	344.661152	372.839701	-153.478778	274.009283	309.717640	-112.088230	534.710520	350.338663	-132.713139	462.024634	317.863912	-62.171195	245.498277	886.895273	-421.239348	318.234312	847.033681	-403.578102	341.453568	871.993551	-385.398599	365.114514	770.243371	-394.232312	400.028209	680.958658	-371.235938	393.618284	665.418691	-272.851241	113.519173	457.098008	-403.507362	130.933184	449.863033	-331.759853	40.132209	470.644874	-367.487869	134.035784	325.426231	-428.731123	326.699432	616.962522	-400.987771	274.132164	548.440234	-394.424246	192.341370	513.422781	-402.066286	287.178439	531.263175	-360.476382	210.818066	274.592172	-358.549617	-64.707701	852.790017	-241.090686	21.217623	83.872679	-442.126500	21.189068	83.937099	-43.953141	
1502	7.5100	493.868653	1214.925377	-27.337786	561.405434	1176.961939	-361.710179	515.945118	1274.164741	-195.563528	478.678319	1146.036577	-196.314813	470.396430	1001.625175	104.740528	667.156128	894.012180	11.990384	467.408314	1013.903037	-566.637200	663.591798	897.190804	-498.170531	21.158960	1127.429236	-267.713958	166.006167	1114.410822	-401.338158	140.519572	1139.375172	-101.930156	202.675829	1062.905234	-368.948261	189.483172	1087.307712	-115.394249	42.501396	1162.038691	-207.921448	53.374208	1161.987653	-318.309710	127.493869	995.573426	-60.364298	144.120487	981.449636	-434.995337	241.484610	908.970746	-59.152718	323.263398	874.580468	-62.823617	370.992120	801.279780	-67.254892	344.198075	897.756585	-81.031560	435.565630	718.879787	-95.751266	430.396218	696.569577	-191.703261	396.958046	620.631234	-62.656446	403.962765	531.867741	-76.202252	365.885230	453.219777	-75.962126	429.445164	530.679197	-106.053272	349.555788	349.662705	-75.716786	343.249688	362.349260	-153.039329	273.051458	299.395077	-111.953737	533.902729	339.228279	-132.641190	461.139805	306.884871	-62.116200	247.315672	889.453808	-420.337367	321.203451	851.315964	-402.272535	343.610696	876.714001	-384.763787	369.426224	775.444604	-393.331322	405.614202	686.930685	-370.692535	397.671174	670.734681	-272.061340	115.774574	467.602264	-403.224434	133.019642	460.201117	-331.478867	42.130776	481.857876	-367.434708	135.216067	336.081204	-428.700146	331.455275	623.979795	-400.435630	277.847391	556.308151	-393.931365	195.532952	522.832309	-401.958503	290.420681	538.790663	-359.709957	211.751168	284.759739	-358.639438	-64.750031	852.754829	-240.844457	21.227116	83.888709	-442.104276	21.184982	83.916259	-43.976826	
1503	7.5150	495.824564	1215.344463	-28.549213	560.566796	1176.819396	-363.146469	516.397865	1273.809246	-196.389804	478.426425	1145.889564	-196.508215	471.437983	1002.197353	104.553056	667.797754	893.975068	12.134544	466.036039	1011.872629	-566.555945	663.685899	897.047683	-498.603204	21.260118	1125.854701	-265.713801	164.960953	1114.722387	-399.632278	140.339273	1137.414683	-99.566007	202.258377	1063.233565	-367.397065	189.601903	1085.881318	-113.593397	42.622216	1161.161779	-205.286288	52.770113	1161.536616	-316.036681	126.563096	991.560435	-58.761085	145.022906	982.187081	-434.201982	239.575879	903.494055	-57.440967	320.083997	867.025719	-61.167214	366.392678	792.630303	-66.936382	342.184206	889.337727	-79.769671	429.163440	709.757531	-95.752285	423.875604	687.512994	-191.297709	392.208423	611.072053	-62.499970	400.159718	522.460039	-76.254227	363.085425	443.332106	-75.964747	425.452931	521.572197	-106.433471	347.697376	339.355944	-75.512534	341.555182	352.100400	-152.859837	271.450256	289.372562	-112.008384	532.712554	328.286031	-132.402653	459.700843	295.958715	-62.149248	248.867012	892.257884	-419.349796	323.518217	856.229174	-402.125994	345.656111	881.685726	-384.335132	373.525989	780.893823	-392.430444	411.156057	693.147050	-370.142431	405.306778	677.979059	-270.873042	118.546040	478.159664	-402.906416	135.493126	470.677927	-331.564144	44.524176	493.021892	-367.456727	137.021379	346.749180	-428.682093	336.488225	631.012796	-399.863444	281.875556	564.624493	-393.700711	198.970574	532.084168	-401.480307	294.188393	546.773351	-359.380041	213.289132	294.937869	-358.509260	-64.597709	852.970586	-241.222994	21.213477	83.774943	-442.200823	21.192035	83.911069	-43.952130	
1504	7.5200	497.865290	1215.803886	-29.851780	559.641524	1176.645422	-364.727259	517.142071	1273.579142	-197.901939	478.466819	1145.872626	-197.307668	472.528492	1002.751285	104.193404	668.504695	894.034622	12.271679	464.694255	1009.887518	-566.644735	663.818618	896.917907	-499.075383	22.264353	1124.216195	-263.658475	163.806998	1115.031026	-397.808896	140.283428	1135.247923	-97.246783	201.852086	1063.596188	-365.908581	189.880221	1084.441607	-111.914245	43.066649	1159.834817	-202.407427	51.794558	1160.943899	-313.277981	125.860458	987.997580	-56.721185	145.739986	982.687323	-433.360114	237.450194	897.932674	-56.297454	316.984873	859.710025	-60.363142	361.534599	784.046219	-66.896391	339.769912	881.445372	-78.616779	422.658067	700.431132	-95.860265	414.546024	677.641160	-191.272484	387.254195	601.433884	-62.551468	396.068347	513.063582	-76.589631	359.857759	433.488284	-76.158923	421.031819	512.599965	-107.161393	345.164849	329.519403	-75.436639	339.133367	342.081004	-152.723004	269.137191	279.673522	-112.054128	530.567386	316.610489	-132.797259	457.348285	284.420973	-62.886580	250.130804	895.039911	-418.253027	325.888582	860.812041	-401.612060	347.490967	886.618509	-383.442542	377.305748	786.743257	-391.671289	416.651971	699.716853	-369.804027	411.053836	684.662022	-270.214104	121.825420	488.632162	-402.618549	138.303418	481.302852	-330.757362	48.028769	503.899970	-367.139069	139.508299	357.399094	-428.676623	341.666901	638.436174	-399.380236	286.135486	572.938708	-393.232525	202.614305	541.263372	-400.606223	298.173473	554.662285	-358.819190	215.570746	305.253258	-358.615770	-64.629645	852.866971	-240.950793	21.238838	83.898734	-442.082739	21.193274	83.921035	-43.951585	
